<svg xmlns="http://www.w3.org/2000/svg" viewBox="0 0 4502 838"><g transform="translate(67,750) scale(1,-1)"><path transform="translate(0,0)" d="M190 0H40V670H410Q534 670 601.5 617.5Q669 565 669 469Q669 301 480 283V275Q522 264 544.5 242.0Q567 220 588 180L685 0H511L419 174Q398 214 372.0 228.5Q346 243 289 243H190ZM190 535V356H409Q464 356 488.0 375.5Q512 395 512 446Q512 495 487.5 515.0Q463 535 409 535Z" fill="#15151A"/><path transform="translate(677,0)" d="M163 0H-5L288 670H502L797 0H625L562 148H227ZM348 429 285 283H504L441 429L400 533H389Z" fill="#15151A"/><path transform="translate(1454,0)" d="M163 0H-5L288 670H502L797 0H625L562 148H227ZM348 429 285 283H504L441 429L400 533H389Z" fill="#15151A"/><path transform="translate(2231,0)" d="M437 0H286V222L-11 670H174L302 474L358 384H369L425 474L553 670H739L437 221Z" fill="#15151A"/><path transform="translate(2944,0)" d="M371 0H48V670H371Q533 670 627.5 581.0Q722 492 722.0 335.0Q722 178 627.5 89.0Q533 0 371 0ZM371 535H198V135H371Q477 135 519.5 176.5Q562 218 562.0 335.0Q562 452 519.5 493.5Q477 535 371 535Z" fill="#15151A"/><path transform="translate(3676,0)" d="M190 0H40V670H410Q534 670 601.5 617.5Q669 565 669 469Q669 301 480 283V275Q522 264 544.5 242.0Q567 220 588 180L685 0H511L419 174Q398 214 372.0 228.5Q346 243 289 243H190ZM190 535V356H409Q464 356 488.0 375.5Q512 395 512 446Q512 495 487.5 515.0Q463 535 409 535Z" fill="#15151A"/></g></svg>