<svg xmlns="http://www.w3.org/2000/svg" viewBox="0 0 640 640"><line x1="0" y1="0" x2="640" y2="0" stroke="#15151A" stroke-width="1.2" opacity="0.08"/><line x1="0" y1="0" x2="636" y2="67" stroke="#15151A" stroke-width="1.2" opacity="0.08"/><line x1="0" y1="0" x2="626" y2="133" stroke="#15151A" stroke-width="1.2" opacity="0.08"/><line x1="0" y1="0" x2="609" y2="198" stroke="#15151A" stroke-width="1.2" opacity="0.08"/><line x1="0" y1="0" x2="585" y2="260" stroke="#15151A" stroke-width="1.2" opacity="0.08"/><line x1="0" y1="0" x2="554" y2="320" stroke="#15151A" stroke-width="1.2" opacity="0.08"/><line x1="0" y1="0" x2="518" y2="376" stroke="#15151A" stroke-width="1.2" opacity="0.08"/><line x1="0" y1="0" x2="476" y2="428" stroke="#15151A" stroke-width="1.2" opacity="0.08"/><line x1="0" y1="0" x2="428" y2="476" stroke="#15151A" stroke-width="1.2" opacity="0.08"/><line x1="0" y1="0" x2="376" y2="518" stroke="#15151A" stroke-width="1.2" opacity="0.08"/><line x1="0" y1="0" x2="320" y2="554" stroke="#15151A" stroke-width="1.2" opacity="0.08"/><line x1="0" y1="0" x2="260" y2="585" stroke="#15151A" stroke-width="1.2" opacity="0.08"/><line x1="0" y1="0" x2="198" y2="609" stroke="#15151A" stroke-width="1.2" opacity="0.08"/><line x1="0" y1="0" x2="133" y2="626" stroke="#15151A" stroke-width="1.2" opacity="0.08"/><line x1="0" y1="0" x2="67" y2="636" stroke="#15151A" stroke-width="1.2" opacity="0.08"/><line x1="0" y1="0" x2="0" y2="640" stroke="#15151A" stroke-width="1.2" opacity="0.08"/></svg>