<svg xmlns="http://www.w3.org/2000/svg" viewBox="0 0 1200 80"><line x1="8" y1="28.0" x2="8" y2="52.0" stroke="#15151A" stroke-width="3" stroke-linecap="round" opacity="0.5"/><line x1="22" y1="32.0" x2="22" y2="48.0" stroke="#15151A" stroke-width="3" stroke-linecap="round" opacity="0.5"/><line x1="36" y1="32.0" x2="36" y2="48.0" stroke="#15151A" stroke-width="3" stroke-linecap="round" opacity="0.5"/><line x1="50" y1="37.0" x2="50" y2="43.0" stroke="#15151A" stroke-width="3" stroke-linecap="round" opacity="0.5"/><line x1="64" y1="35.0" x2="64" y2="45.0" stroke="#15151A" stroke-width="3" stroke-linecap="round" opacity="0.5"/><line x1="78" y1="35.0" x2="78" y2="45.0" stroke="#15151A" stroke-width="3" stroke-linecap="round" opacity="0.5"/><line x1="92" y1="28.0" x2="92" y2="52.0" stroke="#15151A" stroke-width="3" stroke-linecap="round" opacity="0.5"/><line x1="106" y1="37.0" x2="106" y2="43.0" stroke="#15151A" stroke-width="3" stroke-linecap="round" opacity="0.5"/><line x1="120" y1="28.0" x2="120" y2="52.0" stroke="#15151A" stroke-width="3" stroke-linecap="round" opacity="0.5"/><line x1="134" y1="37.0" x2="134" y2="43.0" stroke="#15151A" stroke-width="3" stroke-linecap="round" opacity="0.5"/><line x1="148" y1="35.0" x2="148" y2="45.0" stroke="#15151A" stroke-width="3" stroke-linecap="round" opacity="0.5"/><line x1="162" y1="32.0" x2="162" y2="48.0" stroke="#15151A" stroke-width="3" stroke-linecap="round" opacity="0.5"/><line x1="176" y1="32.0" x2="176" y2="48.0" stroke="#15151A" stroke-width="3" stroke-linecap="round" opacity="0.5"/><line x1="190" y1="35.0" x2="190" y2="45.0" stroke="#15151A" stroke-width="3" stroke-linecap="round" opacity="0.5"/><line x1="204" y1="28.0" x2="204" y2="52.0" stroke="#15151A" stroke-width="3" stroke-linecap="round" opacity="0.5"/><line x1="218" y1="35.0" x2="218" y2="45.0" stroke="#15151A" stroke-width="3" stroke-linecap="round" opacity="0.5"/><line x1="232" y1="32.0" x2="232" y2="48.0" stroke="#15151A" stroke-width="3" stroke-linecap="round" opacity="0.5"/><line x1="246" y1="37.0" x2="246" y2="43.0" stroke="#15151A" stroke-width="3" stroke-linecap="round" opacity="0.5"/><line x1="260" y1="35.0" x2="260" y2="45.0" stroke="#15151A" stroke-width="3" stroke-linecap="round" opacity="0.5"/><line x1="274" y1="28.0" x2="274" y2="52.0" stroke="#15151A" stroke-width="3" stroke-linecap="round" opacity="0.5"/><line x1="288" y1="37.0" x2="288" y2="43.0" stroke="#15151A" stroke-width="3" stroke-linecap="round" opacity="0.5"/><line x1="302" y1="32.0" x2="302" y2="48.0" stroke="#15151A" stroke-width="3" stroke-linecap="round" opacity="0.5"/><line x1="316" y1="37.0" x2="316" y2="43.0" stroke="#15151A" stroke-width="3" stroke-linecap="round" opacity="0.5"/><line x1="330" y1="28.0" x2="330" y2="52.0" stroke="#15151A" stroke-width="3" stroke-linecap="round" opacity="0.5"/><line x1="344" y1="37.0" x2="344" y2="43.0" stroke="#15151A" stroke-width="3" stroke-linecap="round" opacity="0.5"/><line x1="358" y1="32.0" x2="358" y2="48.0" stroke="#15151A" stroke-width="3" stroke-linecap="round" opacity="0.5"/><line x1="372" y1="23.0" x2="372" y2="57.0" stroke="#15151A" stroke-width="3" stroke-linecap="round" opacity="0.5"/><line x1="386" y1="32.0" x2="386" y2="48.0" stroke="#15151A" stroke-width="3" stroke-linecap="round" opacity="0.5"/><line x1="400" y1="32.0" x2="400" y2="48.0" stroke="#15151A" stroke-width="3" stroke-linecap="round" opacity="0.5"/><line x1="414" y1="35.0" x2="414" y2="45.0" stroke="#15151A" stroke-width="3" stroke-linecap="round" opacity="0.5"/><line x1="428" y1="23.0" x2="428" y2="57.0" stroke="#15151A" stroke-width="3" stroke-linecap="round" opacity="0.5"/><line x1="442" y1="32.0" x2="442" y2="48.0" stroke="#15151A" stroke-width="3" stroke-linecap="round" opacity="0.5"/><line x1="456" y1="35.0" x2="456" y2="45.0" stroke="#15151A" stroke-width="3" stroke-linecap="round" opacity="0.5"/><line x1="470" y1="28.0" x2="470" y2="52.0" stroke="#15151A" stroke-width="3" stroke-linecap="round" opacity="0.5"/><line x1="484" y1="28.0" x2="484" y2="52.0" stroke="#15151A" stroke-width="3" stroke-linecap="round" opacity="0.5"/><line x1="498" y1="35.0" x2="498" y2="45.0" stroke="#15151A" stroke-width="3" stroke-linecap="round" opacity="0.5"/><line x1="512" y1="35.0" x2="512" y2="45.0" stroke="#15151A" stroke-width="3" stroke-linecap="round" opacity="0.5"/><line x1="526" y1="37.0" x2="526" y2="43.0" stroke="#15151A" stroke-width="3" stroke-linecap="round" opacity="0.5"/><line x1="540" y1="28.0" x2="540" y2="52.0" stroke="#15151A" stroke-width="3" stroke-linecap="round" opacity="0.5"/><line x1="554" y1="35.0" x2="554" y2="45.0" stroke="#15151A" stroke-width="3" stroke-linecap="round" opacity="0.5"/><line x1="568" y1="32.0" x2="568" y2="48.0" stroke="#15151A" stroke-width="3" stroke-linecap="round" opacity="0.5"/><line x1="582" y1="28.0" x2="582" y2="52.0" stroke="#15151A" stroke-width="3" stroke-linecap="round" opacity="0.5"/><line x1="596" y1="35.0" x2="596" y2="45.0" stroke="#15151A" stroke-width="3" stroke-linecap="round" opacity="0.5"/><line x1="610" y1="35.0" x2="610" y2="45.0" stroke="#15151A" stroke-width="3" stroke-linecap="round" opacity="0.5"/><line x1="624" y1="28.0" x2="624" y2="52.0" stroke="#15151A" stroke-width="3" stroke-linecap="round" opacity="0.5"/><line x1="638" y1="23.0" x2="638" y2="57.0" stroke="#15151A" stroke-width="3" stroke-linecap="round" opacity="0.5"/><line x1="652" y1="28.0" x2="652" y2="52.0" stroke="#15151A" stroke-width="3" stroke-linecap="round" opacity="0.5"/><line x1="666" y1="32.0" x2="666" y2="48.0" stroke="#15151A" stroke-width="3" stroke-linecap="round" opacity="0.5"/><line x1="680" y1="28.0" x2="680" y2="52.0" stroke="#15151A" stroke-width="3" stroke-linecap="round" opacity="0.5"/><line x1="694" y1="35.0" x2="694" y2="45.0" stroke="#15151A" stroke-width="3" stroke-linecap="round" opacity="0.5"/><line x1="708" y1="23.0" x2="708" y2="57.0" stroke="#15151A" stroke-width="3" stroke-linecap="round" opacity="0.5"/><line x1="722" y1="35.0" x2="722" y2="45.0" stroke="#15151A" stroke-width="3" stroke-linecap="round" opacity="0.5"/><line x1="736" y1="28.0" x2="736" y2="52.0" stroke="#15151A" stroke-width="3" stroke-linecap="round" opacity="0.5"/><line x1="750" y1="35.0" x2="750" y2="45.0" stroke="#15151A" stroke-width="3" stroke-linecap="round" opacity="0.5"/><line x1="764" y1="23.0" x2="764" y2="57.0" stroke="#15151A" stroke-width="3" stroke-linecap="round" opacity="0.5"/><line x1="778" y1="35.0" x2="778" y2="45.0" stroke="#15151A" stroke-width="3" stroke-linecap="round" opacity="0.5"/><line x1="792" y1="35.0" x2="792" y2="45.0" stroke="#15151A" stroke-width="3" stroke-linecap="round" opacity="0.5"/><line x1="806" y1="32.0" x2="806" y2="48.0" stroke="#15151A" stroke-width="3" stroke-linecap="round" opacity="0.5"/><line x1="820" y1="32.0" x2="820" y2="48.0" stroke="#15151A" stroke-width="3" stroke-linecap="round" opacity="0.5"/><line x1="834" y1="28.0" x2="834" y2="52.0" stroke="#15151A" stroke-width="3" stroke-linecap="round" opacity="0.5"/><line x1="848" y1="32.0" x2="848" y2="48.0" stroke="#15151A" stroke-width="3" stroke-linecap="round" opacity="0.5"/><line x1="862" y1="35.0" x2="862" y2="45.0" stroke="#15151A" stroke-width="3" stroke-linecap="round" opacity="0.5"/><line x1="876" y1="32.0" x2="876" y2="48.0" stroke="#15151A" stroke-width="3" stroke-linecap="round" opacity="0.5"/><line x1="890" y1="37.0" x2="890" y2="43.0" stroke="#15151A" stroke-width="3" stroke-linecap="round" opacity="0.5"/><line x1="904" y1="35.0" x2="904" y2="45.0" stroke="#15151A" stroke-width="3" stroke-linecap="round" opacity="0.5"/><line x1="918" y1="28.0" x2="918" y2="52.0" stroke="#15151A" stroke-width="3" stroke-linecap="round" opacity="0.5"/><line x1="932" y1="28.0" x2="932" y2="52.0" stroke="#15151A" stroke-width="3" stroke-linecap="round" opacity="0.5"/><line x1="946" y1="28.0" x2="946" y2="52.0" stroke="#15151A" stroke-width="3" stroke-linecap="round" opacity="0.5"/><line x1="960" y1="35.0" x2="960" y2="45.0" stroke="#15151A" stroke-width="3" stroke-linecap="round" opacity="0.5"/><line x1="974" y1="35.0" x2="974" y2="45.0" stroke="#15151A" stroke-width="3" stroke-linecap="round" opacity="0.5"/><line x1="988" y1="35.0" x2="988" y2="45.0" stroke="#15151A" stroke-width="3" stroke-linecap="round" opacity="0.5"/><line x1="1002" y1="35.0" x2="1002" y2="45.0" stroke="#15151A" stroke-width="3" stroke-linecap="round" opacity="0.5"/><line x1="1016" y1="23.0" x2="1016" y2="57.0" stroke="#15151A" stroke-width="3" stroke-linecap="round" opacity="0.5"/><line x1="1030" y1="35.0" x2="1030" y2="45.0" stroke="#15151A" stroke-width="3" stroke-linecap="round" opacity="0.5"/><line x1="1044" y1="35.0" x2="1044" y2="45.0" stroke="#15151A" stroke-width="3" stroke-linecap="round" opacity="0.5"/><line x1="1058" y1="37.0" x2="1058" y2="43.0" stroke="#15151A" stroke-width="3" stroke-linecap="round" opacity="0.5"/><line x1="1072" y1="23.0" x2="1072" y2="57.0" stroke="#15151A" stroke-width="3" stroke-linecap="round" opacity="0.5"/><line x1="1086" y1="35.0" x2="1086" y2="45.0" stroke="#15151A" stroke-width="3" stroke-linecap="round" opacity="0.5"/><line x1="1100" y1="23.0" x2="1100" y2="57.0" stroke="#15151A" stroke-width="3" stroke-linecap="round" opacity="0.5"/><line x1="1114" y1="32.0" x2="1114" y2="48.0" stroke="#15151A" stroke-width="3" stroke-linecap="round" opacity="0.5"/><line x1="1128" y1="28.0" x2="1128" y2="52.0" stroke="#15151A" stroke-width="3" stroke-linecap="round" opacity="0.5"/><line x1="1142" y1="37.0" x2="1142" y2="43.0" stroke="#15151A" stroke-width="3" stroke-linecap="round" opacity="0.5"/><line x1="1156" y1="35.0" x2="1156" y2="45.0" stroke="#15151A" stroke-width="3" stroke-linecap="round" opacity="0.5"/><line x1="1170" y1="28.0" x2="1170" y2="52.0" stroke="#15151A" stroke-width="3" stroke-linecap="round" opacity="0.5"/><line x1="1184" y1="32.0" x2="1184" y2="48.0" stroke="#15151A" stroke-width="3" stroke-linecap="round" opacity="0.5"/></svg>